<svg width="34" height="34" viewBox="0 0 34 34" fill="none" xmlns="http://www.w3.org/2000/svg">
<path d="M30.9144 10.5273C30.7841 10.339 30.6101 10.185 30.4073 10.0787C30.2045 9.97235 29.9789 9.91676 29.7499 9.91668H10.3883L8.7535 5.99252C8.53978 5.4753 8.17695 5.0334 7.71123 4.72309C7.24551 4.41277 6.69797 4.24809 6.13834 4.25002H2.83325V7.08335H6.13834L12.859 23.2121C12.9666 23.4702 13.1483 23.6906 13.3809 23.8456C13.6136 24.0007 13.887 24.0834 14.1666 24.0833H25.4999C26.0907 24.0833 26.6191 23.7164 26.8273 23.1653L31.0773 11.832C31.1577 11.6176 31.1848 11.3868 31.1564 11.1596C31.128 10.9324 31.045 10.7154 30.9144 10.5273ZM24.5182 21.25H15.1115L11.5698 12.75H27.7057L24.5182 21.25Z" fill="#F3E9DC"/>
<path d="M14.875 29.75C16.0486 29.75 17 28.7986 17 27.625C17 26.4514 16.0486 25.5 14.875 25.5C13.7014 25.5 12.75 26.4514 12.75 27.625C12.75 28.7986 13.7014 29.75 14.875 29.75Z" fill="#F3E9DC"/>
<path d="M24.7917 29.75C25.9654 29.75 26.9167 28.7986 26.9167 27.625C26.9167 26.4514 25.9654 25.5 24.7917 25.5C23.6181 25.5 22.6667 26.4514 22.6667 27.625C22.6667 28.7986 23.6181 29.75 24.7917 29.75Z" fill="#F3E9DC"/>
</svg>
