<svg width="32" height="32" viewBox="0 0 32 32" fill="none" xmlns="http://www.w3.org/2000/svg">
<path d="M15.999 9.50684C15.1464 9.50684 14.3022 9.67476 13.5146 10.001C12.7269 10.3273 12.0113 10.8055 11.4084 11.4083C10.8056 12.0111 10.3274 12.7268 10.0011 13.5145C9.67488 14.3021 9.50696 15.1463 9.50696 15.9988C9.50696 16.8514 9.67488 17.6956 10.0011 18.4832C10.3274 19.2709 10.8056 19.9865 11.4084 20.5894C12.0113 21.1922 12.7269 21.6704 13.5146 21.9967C14.3022 22.3229 15.1464 22.4908 15.999 22.4908C17.7207 22.4908 19.372 21.8069 20.5895 20.5894C21.807 19.3719 22.491 17.7206 22.491 15.9988C22.491 14.2771 21.807 12.6258 20.5895 11.4083C19.372 10.1908 17.7207 9.50684 15.999 9.50684ZM11.507 15.9988C11.507 14.8075 11.9802 13.6649 12.8226 12.8225C13.665 11.9801 14.8076 11.5068 15.999 11.5068C17.1903 11.5068 18.3329 11.9801 19.1753 12.8225C20.0177 13.6649 20.491 14.8075 20.491 15.9988C20.491 17.1902 20.0177 18.3327 19.1753 19.1752C18.3329 20.0176 17.1903 20.4908 15.999 20.4908C14.8076 20.4908 13.665 20.0176 12.8226 19.1752C11.9802 18.3327 11.507 17.1902 11.507 15.9988Z" fill="#F3E9DC"/>
<path d="M19.591 2.685C18.537 -0.895 13.461 -0.895 12.407 2.685L12.219 3.323C12.1454 3.5729 12.0168 3.80317 11.8426 3.99692C11.6685 4.19066 11.4532 4.34298 11.2125 4.4427C10.9718 4.54243 10.7119 4.58703 10.4517 4.57324C10.1916 4.55944 9.93778 4.48761 9.709 4.363L9.125 4.043C5.845 2.259 2.259 5.847 4.045 9.125L4.363 9.709C4.48761 9.93778 4.55944 10.1916 4.57324 10.4517C4.58703 10.7119 4.54243 10.9718 4.4427 11.2125C4.34298 11.4532 4.19066 11.6685 3.99692 11.8426C3.80317 12.0168 3.5729 12.1454 3.323 12.219L2.685 12.407C-0.895 13.461 -0.895 18.537 2.685 19.591L3.323 19.779C3.5729 19.8526 3.80317 19.9812 3.99692 20.1554C4.19066 20.3295 4.34298 20.5448 4.4427 20.7855C4.54243 21.0262 4.58703 21.2861 4.57324 21.5463C4.55944 21.8064 4.48761 22.0602 4.363 22.289L4.043 22.873C2.259 26.153 5.845 29.741 9.125 27.953L9.709 27.635C9.93778 27.5104 10.1916 27.4386 10.4517 27.4248C10.7119 27.411 10.9718 27.4556 11.2125 27.5553C11.4532 27.655 11.6685 27.8073 11.8426 28.0011C12.0168 28.1948 12.1454 28.4251 12.219 28.675L12.407 29.313C13.461 32.893 18.537 32.893 19.591 29.313L19.779 28.675C19.8526 28.4251 19.9812 28.1948 20.1554 28.0011C20.3295 27.8073 20.5448 27.655 20.7855 27.5553C21.0262 27.4556 21.2861 27.411 21.5463 27.4248C21.8064 27.4386 22.0602 27.5104 22.289 27.635L22.873 27.955C26.153 29.741 29.741 26.151 27.953 22.873L27.635 22.289C27.5104 22.0602 27.4386 21.8064 27.4248 21.5463C27.411 21.2861 27.4556 21.0262 27.5553 20.7855C27.655 20.5448 27.8073 20.3295 28.0011 20.1554C28.1948 19.9812 28.4251 19.8526 28.675 19.779L29.313 19.591C32.893 18.537 32.893 13.461 29.313 12.407L28.675 12.219C28.4251 12.1454 28.1948 12.0168 28.0011 11.8426C27.8073 11.6685 27.655 11.4532 27.5553 11.2125C27.4556 10.9718 27.411 10.7119 27.4248 10.4517C27.4386 10.1916 27.5104 9.93778 27.635 9.709L27.955 9.125C29.741 5.845 26.151 2.259 22.873 4.045L22.289 4.363C22.0602 4.48761 21.8064 4.55944 21.5463 4.57324C21.2861 4.58703 21.0262 4.54243 20.7855 4.4427C20.5448 4.34298 20.3295 4.19066 20.1554 3.99692C19.9812 3.80317 19.8526 3.5729 19.779 3.323L19.591 2.685ZM14.325 3.251C14.817 1.581 17.181 1.581 17.673 3.251L17.861 3.889C18.019 4.42517 18.2951 4.91918 18.6689 5.3348C19.0426 5.75042 19.5047 6.07713 20.0212 6.29096C20.5376 6.50479 21.0954 6.60033 21.6536 6.57058C22.2117 6.54082 22.7562 6.38653 23.247 6.119L23.829 5.799C25.357 4.969 27.029 6.639 26.197 8.169L25.879 8.753C25.6119 9.24385 25.458 9.78825 25.4285 10.3463C25.3991 10.9044 25.4949 11.4619 25.7089 11.9782C25.9229 12.4944 26.2497 12.9562 26.6653 13.3298C27.081 13.7033 27.5749 13.9791 28.111 14.137L28.747 14.325C30.417 14.817 30.417 17.181 28.747 17.673L28.109 17.861C27.5728 18.019 27.0788 18.2951 26.6632 18.6689C26.2476 19.0426 25.9209 19.5047 25.707 20.0212C25.4932 20.5376 25.3977 21.0954 25.4274 21.6536C25.4572 22.2117 25.6115 22.7562 25.879 23.247L26.199 23.829C27.029 25.357 25.359 27.029 23.829 26.197L23.247 25.879C22.7561 25.6115 22.2115 25.4573 21.6532 25.4277C21.0949 25.398 20.5371 25.4937 20.0206 25.7078C19.5041 25.9218 19.042 26.2487 18.6684 26.6646C18.2947 27.0804 18.0188 27.5747 17.861 28.111L17.673 28.747C17.181 30.417 14.817 30.417 14.325 28.747L14.137 28.109C13.9789 27.5731 13.7029 27.0794 13.3293 26.664C12.9556 26.2485 12.4938 25.922 11.9776 25.7082C11.4614 25.4944 10.9039 25.3987 10.3459 25.4283C9.78799 25.4579 9.24372 25.6118 8.753 25.879L8.169 26.199C6.641 27.029 4.969 25.359 5.801 23.829L6.119 23.247C6.3869 22.7561 6.5415 22.2115 6.57145 21.6531C6.6014 21.0946 6.50595 20.5366 6.29209 20.0199C6.07823 19.5032 5.75139 19.0409 5.33556 18.667C4.91972 18.293 4.42545 18.017 3.889 17.859L3.251 17.671C1.581 17.179 1.581 14.815 3.251 14.323L3.889 14.135C4.42461 13.9768 4.91808 13.7009 5.33328 13.3274C5.74849 12.9539 6.07493 12.4923 6.28871 11.9763C6.50249 11.4604 6.5982 10.9031 6.56883 10.3454C6.53947 9.78773 6.38578 9.24364 6.119 8.753L5.799 8.169C4.969 6.641 6.639 4.969 8.169 5.801L8.753 6.119C9.24372 6.38615 9.78799 6.54015 10.3459 6.56971C10.9039 6.59927 11.4614 6.50364 11.9776 6.28983C12.4938 6.07603 12.9556 5.74946 13.3293 5.33404C13.7029 4.91863 13.9789 4.42489 14.137 3.889L14.325 3.251Z" fill="#F3E9DC"/>
</svg>
