<svg width="22" height="22" viewBox="0 0 22 22" fill="none" xmlns="http://www.w3.org/2000/svg">
<path d="M19.4791 10.9999H8.15367M4.15609 10.9999H2.52075M4.15609 10.9999C4.15609 10.4699 4.36662 9.96167 4.74138 9.58691C5.11614 9.21215 5.62443 9.00161 6.15442 9.00161C6.68441 9.00161 7.19269 9.21215 7.56745 9.58691C7.94221 9.96167 8.15275 10.4699 8.15275 10.9999C8.15275 11.5299 7.94221 12.0382 7.56745 12.413C7.19269 12.7877 6.68441 12.9983 6.15442 12.9983C5.62443 12.9983 5.11614 12.7877 4.74138 12.413C4.36662 12.0382 4.15609 11.5299 4.15609 10.9999ZM19.4791 17.0564H14.2101M14.2101 17.0564C14.2101 17.5865 13.999 18.0953 13.6242 18.4702C13.2493 18.845 12.7409 19.0556 12.2108 19.0556C11.6808 19.0556 11.1726 18.8442 10.7978 18.4694C10.423 18.0946 10.2125 17.5863 10.2125 17.0564M14.2101 17.0564C14.2101 16.5262 13.999 16.0183 13.6242 15.6435C13.2493 15.2686 12.7409 15.058 12.2108 15.058C11.6808 15.058 11.1726 15.2686 10.7978 15.6433C10.423 16.0181 10.2125 16.5264 10.2125 17.0564M10.2125 17.0564H2.52075M19.4791 4.94352H16.6328M12.6353 4.94352H2.52075M12.6353 4.94352C12.6353 4.41353 12.8458 3.90525 13.2206 3.53049C13.5953 3.15573 14.1036 2.94519 14.6336 2.94519C14.896 2.94519 15.1559 2.99688 15.3983 3.0973C15.6408 3.19773 15.8611 3.34493 16.0466 3.53049C16.2322 3.71605 16.3794 3.93635 16.4798 4.17879C16.5802 4.42124 16.6319 4.6811 16.6319 4.94352C16.6319 5.20595 16.5802 5.4658 16.4798 5.70825C16.3794 5.9507 16.2322 6.171 16.0466 6.35656C15.8611 6.54212 15.6408 6.68932 15.3983 6.78974C15.1559 6.89017 14.896 6.94186 14.6336 6.94186C14.1036 6.94186 13.5953 6.73132 13.2206 6.35656C12.8458 5.9818 12.6353 5.47352 12.6353 4.94352Z" stroke="white" stroke-width="1.5" stroke-miterlimit="10" stroke-linecap="round"/>
</svg>
