<svg width="35" height="35" viewBox="0 0 35 35" fill="none" xmlns="http://www.w3.org/2000/svg">
<path d="M21.7876 28.4376L17.5001 25.9147L13.2126 28.4376L14.3501 23.5667L10.573 20.3001L15.5459 19.8772L17.5001 15.3126L19.4542 19.8772L24.4271 20.3001L20.6501 23.5667M29.1667 2.91675H5.83339V5.83341L12.9209 11.1417C10.4482 12.197 8.41575 14.0738 7.16738 16.4549C5.91902 18.836 5.53131 21.5751 6.06984 24.2091C6.60837 26.8431 8.04008 29.2103 10.1228 30.9103C12.2056 32.6103 14.8116 33.5389 17.5001 33.5389C20.1885 33.5389 22.7945 32.6103 24.8773 30.9103C26.96 29.2103 28.3917 26.8431 28.9303 24.2091C29.4688 21.5751 29.0811 18.836 27.8327 16.4549C26.5844 14.0738 24.552 12.197 22.0792 11.1417L29.1667 5.83341M26.2501 21.8751C26.2508 23.5321 25.7811 25.1554 24.8954 26.5559C24.0097 27.9564 22.7446 29.0767 21.2471 29.7863C19.7497 30.4959 18.0815 30.7657 16.4368 30.5643C14.792 30.363 13.2382 29.6987 11.9561 28.6488C10.6741 27.5989 9.71659 26.2065 9.19494 24.6337C8.67329 23.0609 8.60897 21.3723 9.00948 19.7644C9.40999 18.1564 10.2588 16.6953 11.4573 15.5509C12.6558 14.4065 14.1545 13.626 15.7792 13.3001C16.9147 13.0683 18.0854 13.0683 19.2209 13.3001C21.2027 13.6976 22.9857 14.7689 24.2671 16.3321C25.5484 17.8953 26.2491 19.8538 26.2501 21.8751ZM18.4188 10.2084H16.5813L10.748 5.83341H24.3688L18.4188 10.2084Z" fill="#DC720E"/>
</svg>
