<svg width="32" height="32" viewBox="0 0 32 32" fill="none" xmlns="http://www.w3.org/2000/svg">
<path d="M26.6671 7.99984C27.007 8.00021 27.3339 8.13034 27.581 8.36363C27.8281 8.59693 27.9768 8.91577 27.9967 9.25503C28.0166 9.59429 27.9062 9.92834 27.6881 10.1889C27.47 10.4496 27.1606 10.617 26.8231 10.6572L26.6671 10.6665H26.5591L25.3338 25.3332C25.3339 26.3535 24.944 27.3352 24.2441 28.0775C23.5442 28.8198 22.587 29.2666 21.5685 29.3265L21.3338 29.3332H10.6671C8.53648 29.3332 6.79514 27.6678 6.67781 25.6665L6.67114 25.4438L5.44048 10.6665H5.33381C4.99397 10.6661 4.6671 10.536 4.41998 10.3027C4.17287 10.0694 4.02416 9.75057 4.00425 9.41131C3.98433 9.07205 4.09471 8.738 4.31283 8.47739C4.53095 8.21679 4.84035 8.04931 5.17781 8.00917L5.33381 7.99984H26.6671ZM18.6671 2.6665C19.3744 2.6665 20.0527 2.94746 20.5528 3.44755C21.0529 3.94765 21.3338 4.62593 21.3338 5.33317C21.3334 5.67301 21.2033 5.99988 20.97 6.24699C20.7367 6.49411 20.4179 6.64282 20.0786 6.66273C19.7394 6.68265 19.4053 6.57227 19.1447 6.35415C18.8841 6.13603 18.7166 5.82663 18.6765 5.48917L18.6671 5.33317H13.3338L13.3245 5.48917C13.2843 5.82663 13.1169 6.13603 12.8563 6.35415C12.5956 6.57227 12.2616 6.68265 11.9223 6.66273C11.5831 6.64282 11.2642 6.49411 11.0309 6.24699C10.7976 5.99988 10.6675 5.67301 10.6671 5.33317C10.6669 4.6604 10.921 4.01241 11.3785 3.51911C11.8359 3.0258 12.4629 2.72363 13.1338 2.67317L13.3338 2.6665H18.6671Z" fill="#D72638"/>
</svg>
