<svg width="35" height="35" viewBox="0 0 35 35" fill="none" xmlns="http://www.w3.org/2000/svg">
<path d="M23.3334 4.7105C24.3688 3.51466 25.6813 2.91675 27.2709 2.91675C28.598 2.91675 29.7063 3.398 30.625 4.37508C31.5438 5.35216 32.025 6.4605 32.0834 7.72925C32.0834 8.75008 31.6021 9.93133 30.625 11.3167C29.648 12.7022 28.7 13.8542 27.7521 14.8022C26.8042 15.7355 25.3313 17.1209 23.3334 18.9584C21.3063 17.1209 19.8188 15.7355 18.8709 14.8022C17.449 13.4022 16.9605 12.7022 15.998 11.3167C15.0355 9.93133 14.5834 8.75008 14.5834 7.72925C14.5834 6.40216 15.05 5.29383 15.998 4.37508C16.9459 3.45633 18.0834 2.97508 19.4105 2.91675C20.9709 2.91675 22.2688 3.51466 23.3334 4.7105ZM32.0834 27.7084V29.1667L20.4167 32.8126L10.2084 29.9834V32.0834H1.45837V16.0417H13.0813L22.0646 19.3959C22.8651 19.6979 23.5547 20.2363 24.0419 20.9396C24.529 21.643 24.7905 22.4779 24.7917 23.3334H27.7084C30.1292 23.3334 32.0834 25.2876 32.0834 27.7084ZM7.29171 29.1667V18.9584H4.37504V29.1667H7.29171ZM29.0209 27.0813C28.7875 26.6001 28.2771 26.2501 27.7084 26.2501H19.9063C19.1188 26.2501 18.3459 26.1334 17.6021 25.8855L14.1313 24.7334L15.05 21.9626L18.5209 23.1147C18.9584 23.2605 21.875 23.3334 21.875 23.3334C21.875 22.7938 21.5396 22.3126 21.0438 22.123L12.5563 18.9584H10.2084V26.9792L20.373 29.7647L29.0209 27.0813Z" fill="#DC720E"/>
</svg>
