<svg width="32" height="32" viewBox="0 0 32 32" fill="none" xmlns="http://www.w3.org/2000/svg">
<path d="M16 1.4375C11.5194 1.4375 7.87501 5.08187 7.87501 9.5625C7.87501 14.0431 11.5194 17.6875 16 17.6875C20.4806 17.6875 24.125 14.0431 24.125 9.5625C24.125 5.08187 20.4806 1.4375 16 1.4375ZM15.4794 3.38294L14.7435 5.58581L18.0026 5.24438L17.6784 4.15331L18.5924 4.40637V5.61681L20.0201 5.70994L19.7409 4.62369L20.4913 4.18906C22.0256 5.47206 23 7.40106 23 9.5625C23 10.6042 22.7734 11.5919 22.3672 12.4795L20.7341 12.7559V14.7233C20.4226 15.0092 20.0858 15.2662 19.7279 15.4914L19.0269 14.4009L17.6611 14.7734L18.0449 16.26C17.3819 16.4611 16.6928 16.5631 16 16.5625C14.0617 16.5625 12.3102 15.7791 11.0439 14.5109L12.2914 14.3389L13.1296 12.6938L10.4601 11.3591L12.3535 9.745L10.7085 8.37938L9.0277 8.93956C9.2222 6.72406 10.4435 4.80813 12.2148 3.66969L12.5708 6.51694L15.4794 3.38294ZM17.9094 7.3965L15.6488 8.845L17.6241 10.6008L19.0508 10.1838L18.9191 11.8958L21.5309 11.2373L20.5432 8.99869L18.963 9.02063L20.3677 7.8135L17.9094 7.3965H17.9094ZM15.5611 9.92044L14.3539 10.4471L15.2098 11.0836L15.5611 9.92044ZM12.7259 10.1176L11.8879 11.1107L14.2096 12.7424L12.7259 10.1176ZM16.4609 10.6666L15.605 12.2689L17.6681 13.6736L16.9438 12.6419L17.8436 11.5665L16.4609 10.6666ZM3.76064 12.3788C3.20951 12.3703 2.64545 13.0721 2.6422 14.8714C2.63732 17.631 2.36995 18.4099 3.64701 21.5309C4.58345 23.8195 5.00339 25.5786 8.00001 27C8.35501 28.2514 8.21332 28.5456 7.97251 29.615C7.74776 30.6134 10.0614 30.7969 11.7559 29.9558C13.5741 28.9641 13.4215 26.2335 13.0967 24.3818C12.7189 22.2284 11.5304 21.7809 10.5003 20.8611C9.43057 19.3314 9.18164 16.5603 7.44676 15.4424C7.08445 15.2089 5.23614 14.9719 7.77564 21.3137C4.42745 20.4845 5.03732 16.6404 4.7952 13.7944C4.72307 12.9468 4.24689 12.3862 3.76064 12.3787V12.3788ZM28.2394 12.3788C27.7531 12.3863 27.2769 12.9468 27.2048 13.7944C26.9627 16.6404 27.5726 20.4845 24.2244 21.3137C26.7639 14.9719 24.9156 15.2089 24.5533 15.4424C22.8184 16.5603 22.5695 19.3314 21.4998 20.8611C20.4696 21.7809 19.281 22.2284 18.9033 24.3818C18.5785 26.2335 18.4259 28.9641 20.2441 29.9558C21.9386 30.7968 24.2523 30.6134 24.0274 29.615C23.7867 28.5456 23.645 28.2514 24 27C26.9966 25.5786 27.4166 23.8195 28.353 21.5309C29.6301 18.4099 29.3627 17.631 29.3578 14.8715C29.3546 13.0721 28.7905 12.3703 28.2394 12.3788Z" fill="white"/>
</svg>
