<svg width="14" height="10" viewBox="0 0 14 10" fill="none" xmlns="http://www.w3.org/2000/svg">
<path d="M4.95837 8.2332L12.2934 0.899028C12.3745 0.817917 12.47 0.774584 12.58 0.769028C12.69 0.763473 12.7909 0.806806 12.8825 0.899028C12.9742 0.991251 13.0203 1.09042 13.0209 1.19653C13.0214 1.30264 12.9756 1.40153 12.8834 1.49319L5.43004 8.95153C5.29504 9.08653 5.13782 9.15403 4.95837 9.15403C4.77893 9.15403 4.62171 9.08653 4.48671 8.95153L1.11171 5.57653C1.0306 5.49542 0.988373 5.39903 0.98504 5.28736C0.981706 5.1757 1.0256 5.07403 1.11671 4.98236C1.20782 4.8907 1.30698 4.84486 1.41421 4.84486C1.52143 4.84486 1.6206 4.8907 1.71171 4.98236L4.95837 8.2332Z" fill="#F3E9DC"/>
</svg>
