<svg width="35" height="35" viewBox="0 0 35 35" fill="none" xmlns="http://www.w3.org/2000/svg">
<path d="M17.5 18.9584C17.056 18.9532 16.6211 19.0842 16.2538 19.3336C15.8865 19.5831 15.6044 19.9391 15.4456 20.3538C15.2867 20.7684 15.2587 21.2217 15.3653 21.6528C15.4718 22.0838 15.7079 22.4719 16.0417 22.7647V24.7917C16.0417 25.1785 16.1954 25.5495 16.4688 25.8229C16.7423 26.0964 17.1133 26.2501 17.5 26.2501C17.8868 26.2501 18.2577 26.0964 18.5312 25.8229C18.8047 25.5495 18.9584 25.1785 18.9584 24.7917V22.7647C19.2922 22.4719 19.5282 22.0838 19.6348 21.6528C19.7414 21.2217 19.7134 20.7684 19.5545 20.3538C19.3957 19.9391 19.1136 19.5831 18.7463 19.3336C18.379 19.0842 17.944 18.9532 17.5 18.9584ZM24.7917 13.1251V10.2084C24.7917 8.27454 24.0235 6.41988 22.656 5.05243C21.2886 3.68497 19.4339 2.91675 17.5 2.91675C15.5662 2.91675 13.7115 3.68497 12.3441 5.05243C10.9766 6.41988 10.2084 8.27454 10.2084 10.2084V13.1251C9.04805 13.1251 7.93525 13.586 7.11478 14.4065C6.29431 15.227 5.83337 16.3398 5.83337 17.5001V27.7084C5.83337 28.8687 6.29431 29.9815 7.11478 30.802C7.93525 31.6225 9.04805 32.0834 10.2084 32.0834H24.7917C25.952 32.0834 27.0648 31.6225 27.8853 30.802C28.7058 29.9815 29.1667 28.8687 29.1667 27.7084V17.5001C29.1667 16.3398 28.7058 15.227 27.8853 14.4065C27.0648 13.586 25.952 13.1251 24.7917 13.1251ZM13.125 10.2084C13.125 9.04809 13.586 7.93529 14.4064 7.11482C15.2269 6.29435 16.3397 5.83341 17.5 5.83341C18.6604 5.83341 19.7732 6.29435 20.5936 7.11482C21.4141 7.93529 21.875 9.04809 21.875 10.2084V13.1251H13.125V10.2084ZM26.25 27.7084C26.25 28.0952 26.0964 28.4661 25.8229 28.7396C25.5494 29.0131 25.1785 29.1667 24.7917 29.1667H10.2084C9.8216 29.1667 9.45067 29.0131 9.17718 28.7396C8.90369 28.4661 8.75004 28.0952 8.75004 27.7084V17.5001C8.75004 17.1133 8.90369 16.7424 9.17718 16.4689C9.45067 16.1954 9.8216 16.0417 10.2084 16.0417H24.7917C25.1785 16.0417 25.5494 16.1954 25.8229 16.4689C26.0964 16.7424 26.25 17.1133 26.25 17.5001V27.7084Z" fill="#DC720E"/>
</svg>
