<svg width="22" height="22" viewBox="0 0 22 22" fill="none" xmlns="http://www.w3.org/2000/svg">
<path d="M13.7501 18.2233C13.7868 18.4983 13.6951 18.7917 13.4843 18.9842C13.3995 19.0691 13.2988 19.1366 13.1879 19.1826C13.077 19.2286 12.9581 19.2522 12.838 19.2522C12.718 19.2522 12.5991 19.2286 12.4882 19.1826C12.3773 19.1366 12.2766 19.0691 12.1918 18.9842L8.51595 15.3083C8.41603 15.2106 8.34006 15.091 8.29394 14.959C8.24783 14.8271 8.23283 14.6862 8.25012 14.5475V9.85417L3.85929 4.235C3.71043 4.0439 3.64326 3.80165 3.67246 3.56119C3.70166 3.32072 3.82485 3.10158 4.01512 2.95167C4.18929 2.82333 4.38179 2.75 4.58345 2.75H17.4168C17.6185 2.75 17.811 2.82333 17.9851 2.95167C18.1754 3.10158 18.2986 3.32072 18.3278 3.56119C18.357 3.80165 18.2898 4.0439 18.141 4.235L13.7501 9.85417V18.2233ZM6.45345 4.58333L10.0835 9.22167V14.2817L11.9168 16.115V9.2125L15.5468 4.58333H6.45345Z" fill="white"/>
</svg>
