<svg width="32" height="32" viewBox="0 0 32 32" fill="none" xmlns="http://www.w3.org/2000/svg">
<path d="M15.1111 24H16.8889V14.2222H15.1111V24ZM16 11.6924C16.3105 11.6924 16.5707 11.5876 16.7804 11.3778C16.9902 11.168 17.0945 10.9079 17.0933 10.5973C17.0921 10.2868 16.9873 10.0273 16.7787 9.81866C16.5701 9.61007 16.3105 9.50518 16 9.504C15.6895 9.50281 15.4299 9.6077 15.2213 9.81866C15.0127 10.0296 14.9079 10.2898 14.9067 10.5991C14.9055 10.9084 15.0104 11.168 15.2213 11.3778C15.4323 11.5876 15.6919 11.6924 16 11.6924ZM16.0053 32C13.7926 32 11.7126 31.5804 9.76533 30.7413C7.81807 29.901 6.12385 28.7609 4.68267 27.3209C3.24148 25.8809 2.10074 24.1884 1.26044 22.2436C0.420148 20.2987 0 18.2193 0 16.0053C0 13.7914 0.420148 11.7114 1.26044 9.76533C2.09956 7.81807 3.23793 6.12385 4.67556 4.68267C6.11319 3.24148 7.80622 2.10074 9.75467 1.26044C11.7031 0.420148 13.7831 0 15.9947 0C18.2062 0 20.2862 0.420148 22.2347 1.26044C24.1819 2.09956 25.8761 3.23852 27.3173 4.67733C28.7585 6.11615 29.8993 7.80918 30.7396 9.75644C31.5799 11.7037 32 13.7831 32 15.9947C32 18.2062 31.5804 20.2862 30.7413 22.2347C29.9022 24.1831 28.7621 25.8773 27.3209 27.3173C25.8797 28.7573 24.1873 29.8981 22.2436 30.7396C20.2999 31.581 18.2204 32.0012 16.0053 32ZM16 30.2222C19.9704 30.2222 23.3333 28.8444 26.0889 26.0889C28.8444 23.3333 30.2222 19.9704 30.2222 16C30.2222 12.0296 28.8444 8.66667 26.0889 5.91111C23.3333 3.15556 19.9704 1.77778 16 1.77778C12.0296 1.77778 8.66667 3.15556 5.91111 5.91111C3.15556 8.66667 1.77778 12.0296 1.77778 16C1.77778 19.9704 3.15556 23.3333 5.91111 26.0889C8.66667 28.8444 12.0296 30.2222 16 30.2222Z" fill="#F3E9DC"/>
</svg>
